<?xml version="1.0" standalone="no"?>
<!DOCTYPE svg PUBLIC "-//W3C//DTD SVG 20010904//EN"
 "http://www.w3.org/TR/2001/REC-SVG-20010904/DTD/svg10.dtd">
<svg version="1.0" xmlns="http://www.w3.org/2000/svg"
 width="2048.000000pt" height="2048.000000pt" viewBox="0 0 2048.000000 2048.000000"
 preserveAspectRatio="xMidYMid meet">
<metadata>
Created by potrace 1.11, written by Peter Selinger 2001-2013
</metadata>
<g transform="translate(0.000000,2048.000000) scale(0.100000,-0.100000)"
fill="#000000" stroke="none">
<path d="M5290 10240 l0 -7290 570 0 571 0 -4 4828 c-2 2655 -7 4874 -10 4932
-3 58 -8 188 -12 290 -7 223 -12 365 -20 525 -3 66 -8 174 -10 240 -3 66 -8
163 -10 215 -3 52 -7 136 -10 185 -3 50 -7 144 -10 210 -2 66 -7 161 -10 210
-7 132 -15 266 -20 385 -5 106 -11 226 -20 400 -3 52 -7 145 -10 205 -2 61 -7
161 -10 223 l-6 113 52 -3 52 -3 36 -65 c21 -36 53 -94 73 -130 20 -36 49 -88
65 -115 16 -28 47 -81 68 -120 21 -38 76 -137 123 -220 47 -82 96 -170 110
-195 14 -25 44 -79 67 -120 45 -80 78 -140 121 -217 15 -27 44 -77 64 -113 20
-36 48 -85 62 -110 66 -119 447 -796 494 -878 30 -51 54 -95 54 -97 0 -2 15
-30 34 -62 18 -32 46 -80 61 -108 16 -27 46 -81 68 -120 21 -38 54 -97 72
-130 47 -85 158 -273 790 -1340 169 -286 316 -533 326 -550 10 -16 22 -37 26
-45 3 -8 19 -34 35 -57 15 -23 28 -44 28 -47 0 -5 129 -223 201 -341 11 -16
22 -37 26 -45 4 -8 35 -61 70 -119 35 -57 63 -105 63 -107 0 -1 47 -81 104
-176 57 -95 163 -274 236 -398 73 -124 196 -331 273 -460 77 -129 149 -251
159 -270 11 -19 35 -60 53 -90 89 -147 212 -357 218 -370 4 -8 15 -27 25 -42
16 -25 39 -63 204 -343 36 -60 138 -234 228 -385 89 -151 174 -295 188 -320
13 -25 30 -52 37 -60 7 -8 39 -61 71 -118 32 -57 67 -116 76 -130 10 -15 21
-34 25 -42 5 -12 109 -188 152 -260 6 -8 40 -67 77 -130 79 -134 296 -500 445
-750 57 -96 106 -179 108 -185 2 -5 17 -29 32 -52 16 -23 29 -44 29 -46 0 -3
54 -96 120 -207 67 -111 127 -214 136 -229 8 -14 23 -39 34 -56 10 -16 25 -41
32 -55 13 -24 75 -129 374 -633 68 -115 124 -211 124 -215 0 -3 6 -13 14 -21
7 -9 25 -36 38 -61 14 -25 57 -97 95 -160 39 -64 72 -120 74 -125 2 -6 27 -47
54 -93 28 -46 58 -97 69 -115 10 -18 77 -131 149 -252 72 -121 145 -245 162
-275 18 -30 75 -128 129 -217 l97 -163 619 0 620 0 0 7290 0 7290 -570 0 -571
0 4 -4817 c2 -2650 7 -4874 10 -4943 3 -69 9 -213 12 -320 8 -264 19 -563 30
-825 3 -55 7 -156 10 -225 7 -161 14 -312 20 -425 3 -49 7 -137 10 -195 7
-144 14 -291 20 -380 4 -72 10 -174 20 -380 2 -52 7 -133 10 -180 3 -47 8
-127 10 -177 l5 -93 -49 0 -49 0 -50 88 c-27 48 -66 118 -86 155 -20 37 -45
82 -55 100 -10 18 -46 84 -81 147 -34 63 -73 134 -86 158 -89 159 -208 375
-305 552 -41 74 -79 144 -86 155 -7 11 -15 27 -19 35 -4 8 -26 49 -49 90 -23
41 -61 111 -85 155 -24 44 -65 118 -92 164 -26 46 -48 86 -48 88 0 2 -33 63
-74 136 -94 167 -380 687 -390 707 -4 8 -12 24 -19 35 -7 11 -32 56 -56 100
-24 44 -79 139 -121 210 -43 72 -139 234 -214 360 -75 127 -140 237 -145 245
-5 8 -60 101 -122 205 -63 105 -167 280 -233 390 -66 110 -125 209 -131 220
-6 11 -40 69 -75 128 -36 59 -73 121 -83 138 -75 130 -273 459 -288 481 -10
15 -19 31 -19 35 0 4 -11 23 -24 42 -23 36 -307 510 -336 563 -8 15 -35 60
-59 100 -75 124 -478 801 -498 838 -11 19 -35 60 -54 90 -19 30 -41 67 -49 81
-8 15 -76 129 -150 253 -160 269 -170 285 -184 311 -6 11 -19 31 -28 45 -8 14
-96 160 -193 325 -98 165 -195 328 -216 362 -22 34 -39 66 -39 69 0 4 -11 22
-25 40 -14 18 -25 35 -25 38 0 2 -46 82 -103 178 -57 95 -177 297 -266 448
-90 151 -172 287 -182 302 -10 15 -19 29 -19 32 0 2 -37 66 -83 142 -46 77
-166 279 -267 449 -100 171 -193 326 -205 345 -13 19 -116 193 -230 385 -114
193 -218 367 -231 387 -13 21 -24 41 -24 44 0 4 -6 15 -14 23 -7 9 -25 36 -38
61 -14 25 -53 92 -88 150 -35 58 -71 119 -80 135 -19 33 -252 422 -281 470
-11 17 -24 41 -31 55 -7 14 -15 27 -18 30 -3 3 -10 14 -16 25 -12 21 -438 738
-473 796 -12 19 -24 42 -27 52 -6 16 -45 17 -630 17 l-624 0 0 -7290z"/>
</g>
</svg>
